<?xml version="1.0" encoding="utf-8"?>
<!-- Generator: Adobe Illustrator 24.1.1, SVG Export Plug-In . SVG Version: 6.00 Build 0)  -->
<svg version="1.1" id="Layer_1" xmlns="http://www.w3.org/2000/svg" xmlns:xlink="http://www.w3.org/1999/xlink" x="0px" y="0px"
	 viewBox="0 0 1287.81 794" style="enable-background:new 0 0 1287.81 794;" xml:space="preserve">
<style type="text/css">
	.st0{fill:url(#SVGID_1_);}
	.st1{fill:url(#SVGID_2_);}
	.st2{fill:url(#SVGID_3_);}
	.st3{fill:url(#SVGID_4_);}
	.st4{opacity:0.5;fill:url(#SVGID_5_);}
	.st5{opacity:0.5;fill:url(#SVGID_6_);}
	.st6{filter:url(#Adobe_OpacityMaskFilter);}
	.st7{fill:url(#SVGID_8_);}
	.st8{mask:url(#SVGID_7_);fill-rule:evenodd;clip-rule:evenodd;fill:#1C4104;}
	.st9{clip-path:url(#SVGID_10_);fill:url(#SVGID_11_);}
	.st10{filter:url(#Adobe_OpacityMaskFilter_1_);}
	.st11{fill:url(#SVGID_13_);}
	.st12{mask:url(#SVGID_12_);fill-rule:evenodd;clip-rule:evenodd;fill:#F8FBB9;}
	.st13{filter:url(#Adobe_OpacityMaskFilter_2_);}
	.st14{fill:url(#SVGID_15_);}
	.st15{mask:url(#SVGID_14_);fill-rule:evenodd;clip-rule:evenodd;fill:#1C4104;}
	.st16{clip-path:url(#SVGID_17_);fill:url(#SVGID_18_);}
	.st17{filter:url(#Adobe_OpacityMaskFilter_3_);}
	.st18{fill:url(#SVGID_20_);}
	.st19{mask:url(#SVGID_19_);fill-rule:evenodd;clip-rule:evenodd;fill:#F8FBB9;}
	.st20{filter:url(#Adobe_OpacityMaskFilter_4_);}
	.st21{fill:url(#SVGID_22_);}
	.st22{mask:url(#SVGID_21_);fill-rule:evenodd;clip-rule:evenodd;fill:#1C4104;}
	.st23{clip-path:url(#SVGID_24_);fill:url(#SVGID_25_);}
	.st24{filter:url(#Adobe_OpacityMaskFilter_5_);}
	.st25{fill:url(#SVGID_27_);}
	.st26{mask:url(#SVGID_26_);fill-rule:evenodd;clip-rule:evenodd;fill:#F8FBB9;}
	.st27{filter:url(#Adobe_OpacityMaskFilter_6_);}
	.st28{fill:url(#SVGID_29_);}
	.st29{mask:url(#SVGID_28_);fill-rule:evenodd;clip-rule:evenodd;fill:#1C4104;}
	.st30{clip-path:url(#SVGID_31_);fill:url(#SVGID_32_);}
	.st31{filter:url(#Adobe_OpacityMaskFilter_7_);}
	.st32{fill:url(#SVGID_34_);}
	.st33{mask:url(#SVGID_33_);fill-rule:evenodd;clip-rule:evenodd;fill:#F8FBB9;}
	.st34{fill:url(#SVGID_35_);}
	.st35{fill:url(#SVGID_36_);}
	.st36{fill:url(#SVGID_37_);}
	.st37{fill:url(#SVGID_38_);}
	.st38{fill:url(#SVGID_39_);}
	.st39{fill:url(#SVGID_40_);}
	.st40{fill:url(#SVGID_41_);}
	.st41{fill:url(#SVGID_42_);}
	.st42{fill:url(#SVGID_43_);}
	.st43{fill:url(#SVGID_44_);}
	.st44{fill:url(#SVGID_45_);}
	.st45{fill:url(#SVGID_46_);}
	.st46{fill:url(#SVGID_47_);}
	.st47{fill:url(#SVGID_48_);}
	.st48{fill:url(#SVGID_49_);}
	.st49{fill:url(#SVGID_50_);}
	.st50{fill:url(#SVGID_51_);}
	.st51{fill:url(#SVGID_52_);}
	.st52{fill:url(#SVGID_53_);}
	.st53{fill:url(#SVGID_54_);}
</style>
<g>
	
		<linearGradient id="SVGID_1_" gradientUnits="userSpaceOnUse" x1="224.2724" y1="729.4911" x2="1268.1096" y2="729.4911" gradientTransform="matrix(0.9998 -6.073260e-03 -6.073260e-03 0.7762 3.7917 139.7519)">
		<stop  offset="0" style="stop-color:#027800"/>
		<stop  offset="1" style="stop-color:#AFF022"/>
	</linearGradient>
	<path class="st0" d="M1267.81,627.75c-52.04,1.23-104.08,1.82-156.09,2.32c-52,0.37-103.97,0.49-155.92,0.55
		c-103.88,0.19-207.68-0.74-311.42,0.94c-51.7,0.91-103.97,2.24-153.77,8.08c-24.85,2.91-48.62,7.21-70.97,12.53
		c-11.19,2.65-22.07,5.53-32.75,8.55c-10.53,2.93-20.19,6.32-29.14,10.01c-17.86,7.39-33.01,15.77-46.31,24.51
		c-13.34,8.75-24.94,17.87-35.47,27.15c-21.34,18.54-38.04,37.75-52.95,57.11c12.48-19.56,28.17-38.93,47.93-57.82
		c10.06-9.42,21.35-18.7,34.43-27.66c13.07-8.96,28.07-17.62,46.21-25.41c9.08-3.88,19.07-7.52,30.02-10.7
		c10.75-3.11,21.85-6.06,33.3-8.82c22.87-5.52,47.54-10.06,73.2-13.13c25.64-3.1,51.88-4.97,78.03-6.23
		c26.17-1.23,52.34-1.96,78.43-2.41c52.19-0.77,104.17-0.73,156.11-0.64c51.93,0.15,103.84,0.31,155.69,0.69
		c51.86,0.33,103.73,0.57,155.64,0.63C1163.89,628.2,1215.83,628.03,1267.81,627.75z"/>
	<g>
		<linearGradient id="SVGID_2_" gradientUnits="userSpaceOnUse" x1="692.0655" y1="164.9732" x2="846.5098" y2="164.9732">
			<stop  offset="0" style="stop-color:#027800"/>
			<stop  offset="1" style="stop-color:#AFF022"/>
		</linearGradient>
		<path class="st1" d="M794.45,196.5c-1.61-5.48-3.87-10.74-5.76-16.13l-2.86-8.08c-0.97-2.69-2.23-5.26-3.26-7.93
			c-2.16-5.3-4.38-10.58-6.46-15.93l-7.21-15.65c-4.42-10.68-10.23-20.65-15.16-31.24c-2.3-5.41-5.56-10.22-8.19-15.48
			c-2.75-5.18-5.49-10.41-8.04-15.82c4.26,4.1,8.35,8.39,12.41,12.72c2.07,2.14,4.02,4.38,6.03,6.58l2.99,3.32l2.75,3.5
			c3.62,4.71,7.2,9.46,10.72,14.28c3.67,4.73,6.78,9.81,9.86,14.92c3.09,5.1,6.23,10.2,9.16,15.42c2.73,5.32,5.31,10.71,7.95,16.09
			c1.3,2.7,2.66,5.37,3.8,8.14l3.34,8.34c2.08,5.62,4.51,11.12,6.26,16.86c7.68,22.73,12.39,46.46,14.34,70.31
			c0.92,12.63,1.09,25.38,0.11,38.01c16.78-32.94,38.85-103.17-13.48-189.95C776.3,46.63,692.07,14.49,692.07,14.49
			c22.29,66.88-5.76,107.91,19.24,199.77c25,91.85,93.09,101.2,93.09,101.2S811.25,257.15,794.45,196.5z"/>
		<linearGradient id="SVGID_3_" gradientUnits="userSpaceOnUse" x1="815.9221" y1="206.0782" x2="995.6095" y2="206.0782">
			<stop  offset="0" style="stop-color:#027800"/>
			<stop  offset="1" style="stop-color:#AFF022"/>
		</linearGradient>
		<path class="st2" d="M995.61,91.66c-33.44,6-105.44,40.08-144.27,75.3c5.81,20.81,7.68,40.09,7.06,57.44
			c2.57-4.64,5.26-9.22,8.16-13.67c10.35-16.01,22.23-31.12,36.1-44.2c6.67-6.77,14.19-12.69,21.7-18.45
			c3.73-2.91,7.78-5.44,11.81-7.95c4.05-2.49,8.1-4.92,12.28-7.14c-2.81,3.89-5.76,7.56-8.71,11.18c-2.91,3.66-6.1,6.97-8.77,10.81
			c-5.63,7.36-11.58,14.26-16.87,21.72c-11.18,14.37-21.3,29.37-31.13,44.5c-9.87,15.14-18.82,30.85-27.43,46.9
			c-8.63,16.08-18.55,35.13-26.38,52.38c0-1.68,58.84,6.97,110.29-44.48C993.47,221.99,995.61,91.66,995.61,91.66z"/>
		<linearGradient id="SVGID_4_" gradientUnits="userSpaceOnUse" x1="829.153" y1="158.0321" x2="1008.8997" y2="158.0321">
			<stop  offset="0" style="stop-color:#027800"/>
			<stop  offset="1" style="stop-color:#AFF022"/>
		</linearGradient>
		<path class="st3" d="M858.39,224.4c2.57-4.64,5.26-9.22,8.16-13.67c10.1-15.62,35.17-53.05,81.9-77.73
			c28.72-29.34,38.59-36.63,47.16-41.34c-33.44,6-105.44,40.08-144.27,75.3C857.15,187.77,859.01,207.05,858.39,224.4z"/>
		<linearGradient id="SVGID_5_" gradientUnits="userSpaceOnUse" x1="879.8184" y1="136.0101" x2="984.9631" y2="360.1594">
			<stop  offset="0" style="stop-color:#00A14F;stop-opacity:0"/>
			<stop  offset="1" style="stop-color:#1C1C1B"/>
		</linearGradient>
		<path class="st4" d="M829.68,320.31c5.75-0.74,61.06,4.42,109.77-44.29c54.03-54.03,56.16-184.36,56.16-184.36
			C961.7,269.5,838.36,317.16,829.68,320.31z"/>
		<linearGradient id="SVGID_6_" gradientUnits="userSpaceOnUse" x1="690.4117" y1="13.1813" x2="805.2363" y2="441.7127">
			<stop  offset="0" style="stop-color:#00A14F;stop-opacity:0"/>
			<stop  offset="0.2746" style="stop-color:#078042;stop-opacity:0.2746"/>
			<stop  offset="0.8756" style="stop-color:#182E22;stop-opacity:0.8756"/>
			<stop  offset="1" style="stop-color:#1C1C1B"/>
		</linearGradient>
		<path class="st5" d="M751.23,165.4C733.22,44.5,692.07,14.49,692.07,14.49c22.29,66.88-5.76,107.91,19.24,199.77
			c25,91.85,93.09,101.2,93.09,101.2S769.24,286.3,751.23,165.4z"/>
		<g>
			<defs>
				<filter id="Adobe_OpacityMaskFilter" filterUnits="userSpaceOnUse" x="717.68" y="119.07" width="34.83" height="50.53">
					<feColorMatrix  type="matrix" values="1 0 0 0 0  0 1 0 0 0  0 0 1 0 0  0 0 0 1 0"/>
				</filter>
			</defs>
			<mask maskUnits="userSpaceOnUse" x="717.68" y="119.07" width="34.83" height="50.53" id="SVGID_7_">
				<g class="st6">
					
						<linearGradient id="SVGID_8_" gradientUnits="userSpaceOnUse" x1="848.6359" y1="771.3777" x2="848.6359" y2="700.2308" gradientTransform="matrix(1 0 0 1 -113.5417 -582.0282)">
						<stop  offset="0" style="stop-color:#FFFFFF"/>
						<stop  offset="1" style="stop-color:#000000"/>
					</linearGradient>
					<rect x="717.68" y="119.07" class="st7" width="34.83" height="50.53"/>
				</g>
			</mask>
			<path class="st8" d="M735.09,119.07c-9.62,0-17.42,11.31-17.42,25.27c0,13.96,7.8,25.27,17.42,25.27
				c9.62,0,17.42-11.31,17.42-25.27C752.51,130.39,744.71,119.07,735.09,119.07"/>
			<g>
				<defs>
					<path id="SVGID_9_" d="M735.09,117.88c-8.87,0-16.06,10.43-16.06,23.3c0,12.87,7.19,23.3,16.06,23.3
						c8.87,0,16.06-10.43,16.06-23.3C751.15,128.31,743.96,117.88,735.09,117.88"/>
				</defs>
				<clipPath id="SVGID_10_">
					<use xlink:href="#SVGID_9_"  style="overflow:visible;"/>
				</clipPath>
				<linearGradient id="SVGID_11_" gradientUnits="userSpaceOnUse" x1="735.0949" y1="122.592" x2="735.0949" y2="159.5721">
					<stop  offset="0" style="stop-color:#027800"/>
					<stop  offset="1" style="stop-color:#AFF022"/>
				</linearGradient>
				<rect x="719.04" y="117.88" class="st9" width="32.12" height="46.59"/>
			</g>
			<defs>
				<filter id="Adobe_OpacityMaskFilter_1_" filterUnits="userSpaceOnUse" x="721.52" y="118.65" width="27.14" height="24.52">
					<feColorMatrix  type="matrix" values="1 0 0 0 0  0 1 0 0 0  0 0 1 0 0  0 0 0 1 0"/>
				</filter>
			</defs>
			<mask maskUnits="userSpaceOnUse" x="721.52" y="118.65" width="27.14" height="24.52" id="SVGID_12_">
				<g class="st10">
					
						<linearGradient id="SVGID_13_" gradientUnits="userSpaceOnUse" x1="847.8843" y1="694.1069" x2="847.8843" y2="741.6238" gradientTransform="matrix(1 0 0 1 -112.7897 -587.1957)">
						<stop  offset="0" style="stop-color:#FFFFFF"/>
						<stop  offset="1" style="stop-color:#000000"/>
					</linearGradient>
					<rect x="721.52" y="118.65" class="st11" width="27.14" height="24.52"/>
				</g>
			</mask>
			<path class="st12" d="M735.09,118.65c-7.49,0-13.57,8.82-13.57,19.69c0,10.87,4.21,0,13.57,0c9.36,0,13.57,10.87,13.57,0
				C748.67,127.47,742.59,118.65,735.09,118.65"/>
		</g>
		<g>
			<defs>
				<filter id="Adobe_OpacityMaskFilter_2_" filterUnits="userSpaceOnUse" x="747.35" y="224.73" width="22.96" height="33.31">
					<feColorMatrix  type="matrix" values="1 0 0 0 0  0 1 0 0 0  0 0 1 0 0  0 0 0 1 0"/>
				</filter>
			</defs>
			<mask maskUnits="userSpaceOnUse" x="747.35" y="224.73" width="22.96" height="33.31" id="SVGID_14_">
				<g class="st13">
					
						<linearGradient id="SVGID_15_" gradientUnits="userSpaceOnUse" x1="863.0087" y1="856.3698" x2="863.0087" y2="809.4668" gradientTransform="matrix(1 0 0 1 -104.1732 -585.3356)">
						<stop  offset="0" style="stop-color:#FFFFFF"/>
						<stop  offset="1" style="stop-color:#000000"/>
					</linearGradient>
					<rect x="747.35" y="224.73" class="st14" width="22.96" height="33.31"/>
				</g>
			</mask>
			<path class="st15" d="M758.84,224.73c-6.34,0-11.48,7.46-11.48,16.65c0,9.2,5.14,16.66,11.48,16.66
				c6.34,0,11.48-7.46,11.48-16.66C770.32,232.19,765.18,224.73,758.84,224.73"/>
			<g>
				<defs>
					<path id="SVGID_16_" d="M758.84,223.94c-5.85,0-10.59,6.88-10.59,15.36c0,8.48,4.74,15.36,10.59,15.36
						c5.85,0,10.59-6.88,10.59-15.36C769.42,230.82,764.68,223.94,758.84,223.94"/>
				</defs>
				<clipPath id="SVGID_17_">
					<use xlink:href="#SVGID_16_"  style="overflow:visible;"/>
				</clipPath>
				<linearGradient id="SVGID_18_" gradientUnits="userSpaceOnUse" x1="758.8356" y1="227.0238" x2="758.8356" y2="251.4217">
					<stop  offset="0" style="stop-color:#027800"/>
					<stop  offset="1" style="stop-color:#AFF022"/>
				</linearGradient>
				<rect x="748.25" y="223.94" class="st16" width="21.17" height="30.71"/>
			</g>
			<defs>
				<filter id="Adobe_OpacityMaskFilter_3_" filterUnits="userSpaceOnUse" x="749.89" y="224.46" width="17.89" height="16.16">
					<feColorMatrix  type="matrix" values="1 0 0 0 0  0 1 0 0 0  0 0 1 0 0  0 0 0 1 0"/>
				</filter>
			</defs>
			<mask maskUnits="userSpaceOnUse" x="749.89" y="224.46" width="17.89" height="16.16" id="SVGID_19_">
				<g class="st17">
					
						<linearGradient id="SVGID_20_" gradientUnits="userSpaceOnUse" x1="862.5132" y1="805.4761" x2="862.5132" y2="836.7789" gradientTransform="matrix(1 0 0 1 -103.6777 -588.7417)">
						<stop  offset="0" style="stop-color:#FFFFFF"/>
						<stop  offset="1" style="stop-color:#000000"/>
					</linearGradient>
					<rect x="749.89" y="224.46" class="st18" width="17.89" height="16.16"/>
				</g>
			</mask>
			<path class="st19" d="M758.84,224.46c-4.94,0-8.95,5.81-8.95,12.98c0,7.17,2.78,0,8.95,0c6.17,0,8.95,7.17,8.95,0
				C767.78,230.27,763.78,224.46,758.84,224.46"/>
		</g>
		<g>
			<defs>
				<filter id="Adobe_OpacityMaskFilter_4_" filterUnits="userSpaceOnUse" x="892.4" y="242.4" width="22.96" height="33.31">
					<feColorMatrix  type="matrix" values="1 0 0 0 0  0 1 0 0 0  0 0 1 0 0  0 0 0 1 0"/>
				</filter>
			</defs>
			<mask maskUnits="userSpaceOnUse" x="892.4" y="242.4" width="22.96" height="33.31" id="SVGID_21_">
				<g class="st20">
					
						<linearGradient id="SVGID_22_" gradientUnits="userSpaceOnUse" x1="1008.0546" y1="874.037" x2="1008.0546" y2="827.134" gradientTransform="matrix(1 0 0 1 -104.1732 -585.3356)">
						<stop  offset="0" style="stop-color:#FFFFFF"/>
						<stop  offset="1" style="stop-color:#000000"/>
					</linearGradient>
					<rect x="892.4" y="242.4" class="st21" width="22.96" height="33.31"/>
				</g>
			</mask>
			<path class="st22" d="M903.88,242.4c-6.34,0-11.48,7.46-11.48,16.65c0,9.2,5.14,16.66,11.48,16.66c6.34,0,11.48-7.46,11.48-16.66
				C915.36,249.86,910.22,242.4,903.88,242.4"/>
			<g>
				<defs>
					<path id="SVGID_23_" d="M903.88,241.61c-5.85,0-10.59,6.88-10.59,15.36c0,8.48,4.74,15.36,10.59,15.36
						c5.85,0,10.59-6.88,10.59-15.36C914.47,248.49,909.73,241.61,903.88,241.61"/>
				</defs>
				<clipPath id="SVGID_24_">
					<use xlink:href="#SVGID_23_"  style="overflow:visible;"/>
				</clipPath>
				<linearGradient id="SVGID_25_" gradientUnits="userSpaceOnUse" x1="903.8815" y1="244.6911" x2="903.8815" y2="269.089">
					<stop  offset="0" style="stop-color:#027800"/>
					<stop  offset="1" style="stop-color:#AFF022"/>
				</linearGradient>
				<rect x="893.3" y="241.61" class="st23" width="21.17" height="30.71"/>
			</g>
			<defs>
				<filter id="Adobe_OpacityMaskFilter_5_" filterUnits="userSpaceOnUse" x="894.93" y="242.12" width="17.89" height="16.16">
					<feColorMatrix  type="matrix" values="1 0 0 0 0  0 1 0 0 0  0 0 1 0 0  0 0 0 1 0"/>
				</filter>
			</defs>
			<mask maskUnits="userSpaceOnUse" x="894.93" y="242.12" width="17.89" height="16.16" id="SVGID_26_">
				<g class="st24">
					
						<linearGradient id="SVGID_27_" gradientUnits="userSpaceOnUse" x1="1007.5591" y1="823.1434" x2="1007.5591" y2="854.4462" gradientTransform="matrix(1 0 0 1 -103.6777 -588.7417)">
						<stop  offset="0" style="stop-color:#FFFFFF"/>
						<stop  offset="1" style="stop-color:#000000"/>
					</linearGradient>
					<rect x="894.93" y="242.12" class="st25" width="17.89" height="16.16"/>
				</g>
			</mask>
			<path class="st26" d="M903.88,242.12c-4.94,0-8.95,5.81-8.95,12.98c0,7.17,2.78,0,8.95,0c6.17,0,8.95,7.17,8.95,0
				C912.83,247.93,908.82,242.12,903.88,242.12"/>
		</g>
		<g>
			<defs>
				<filter id="Adobe_OpacityMaskFilter_6_" filterUnits="userSpaceOnUse" x="964.01" y="114.43" width="22.96" height="33.31">
					<feColorMatrix  type="matrix" values="1 0 0 0 0  0 1 0 0 0  0 0 1 0 0  0 0 0 1 0"/>
				</filter>
			</defs>
			<mask maskUnits="userSpaceOnUse" x="964.01" y="114.43" width="22.96" height="33.31" id="SVGID_28_">
				<g class="st27">
					
						<linearGradient id="SVGID_29_" gradientUnits="userSpaceOnUse" x1="1026.53" y1="736.477" x2="1026.53" y2="689.5739" gradientTransform="matrix(1 0 0 1 -51.0406 -575.7477)">
						<stop  offset="0" style="stop-color:#FFFFFF"/>
						<stop  offset="1" style="stop-color:#000000"/>
					</linearGradient>
					<rect x="964.01" y="114.43" class="st28" width="22.96" height="33.31"/>
				</g>
			</mask>
			<path class="st29" d="M975.49,114.43c-6.34,0-11.48,7.46-11.48,16.65c0,9.2,5.14,16.66,11.48,16.66
				c6.34,0,11.48-7.46,11.48-16.66C986.97,121.88,981.83,114.43,975.49,114.43"/>
			<g>
				<defs>
					<path id="SVGID_30_" d="M975.49,113.64c-5.85,0-10.59,6.88-10.59,15.36c0,8.48,4.74,15.36,10.59,15.36
						c5.85,0,10.59-6.88,10.59-15.36C986.07,120.51,981.33,113.64,975.49,113.64"/>
				</defs>
				<clipPath id="SVGID_31_">
					<use xlink:href="#SVGID_30_"  style="overflow:visible;"/>
				</clipPath>
				<linearGradient id="SVGID_32_" gradientUnits="userSpaceOnUse" x1="975.4886" y1="116.7299" x2="975.4886" y2="141.1276">
					<stop  offset="0" style="stop-color:#027800"/>
					<stop  offset="1" style="stop-color:#AFF022"/>
				</linearGradient>
				<rect x="964.9" y="113.64" class="st30" width="21.17" height="30.72"/>
			</g>
			<defs>
				<filter id="Adobe_OpacityMaskFilter_7_" filterUnits="userSpaceOnUse" x="966.54" y="114.15" width="17.89" height="16.16">
					<feColorMatrix  type="matrix" values="1 0 0 0 0  0 1 0 0 0  0 0 1 0 0  0 0 0 1 0"/>
				</filter>
			</defs>
			<mask maskUnits="userSpaceOnUse" x="966.54" y="114.15" width="17.89" height="16.16" id="SVGID_33_">
				<g class="st31">
					
						<linearGradient id="SVGID_34_" gradientUnits="userSpaceOnUse" x1="1026.0341" y1="685.5821" x2="1026.0341" y2="716.8849" gradientTransform="matrix(1 0 0 1 -50.5451 -579.1541)">
						<stop  offset="0" style="stop-color:#FFFFFF"/>
						<stop  offset="1" style="stop-color:#000000"/>
					</linearGradient>
					<rect x="966.54" y="114.15" class="st32" width="17.89" height="16.16"/>
				</g>
			</mask>
			<path class="st33" d="M975.49,114.15c-4.94,0-8.95,5.81-8.95,12.98c0,7.17,2.78,0,8.95,0c6.17,0,8.95,7.17,8.95,0
				C984.43,119.96,980.43,114.15,975.49,114.15"/>
		</g>
	</g>
	<g>
		<linearGradient id="SVGID_35_" gradientUnits="userSpaceOnUse" x1="125.3894" y1="638.9935" x2="125.3894" y2="85.3203">
			<stop  offset="0.1006" style="stop-color:#F99810"/>
			<stop  offset="1" style="stop-color:#FFCB00"/>
		</linearGradient>
		<path class="st34" d="M72.68,308.4c3.25-16.88,11.26-24.68,26.84-24.68h118.19c7.79,0,13.2,5.84,13.2,13.2
			c0,3.03-1.52,9.74-9.52,50.87c-1.73,8.66-10.61,16.02-19.27,16.02h-48.92l-7.58,39.4h43.73c7.58,0,13.2,5.41,13.2,12.56
			c0,3.25-1.3,8.66-8.66,46.32c-1.73,8.66-10.39,16.02-19.05,16.02h-43.73l-8.23,41.99h48.92c7.58,0,12.99,5.63,12.99,12.99
			c0,3.25-1.3,9.09-9.53,51.52c-1.73,8.66-10.39,15.59-19.05,15.59H38.04c-12.56,0-18.18-5.2-18.18-15.8
			C19.86,576.18,21.59,570.98,72.68,308.4z"/>
		<linearGradient id="SVGID_36_" gradientUnits="userSpaceOnUse" x1="264.3494" y1="638.9935" x2="264.3494" y2="85.3203">
			<stop  offset="0.1006" style="stop-color:#F99810"/>
			<stop  offset="1" style="stop-color:#FFCB00"/>
		</linearGradient>
		<path class="st35" d="M253.42,600.2h-44.59c-12.99,0-17.97-5.2-17.97-16.67c0-3.9,0.65-8.66,1.73-14.07l53.03-272.32
			c4.33-22.08,14.72-24.68,39.83-24.68h21.65c22.73,0,30.74,4.11,30.74,16.45c0,2.6-0.22,5.41-0.87,8.66l-53.25,274.05
			C279.83,591.11,272.9,600.2,253.42,600.2z"/>
		<linearGradient id="SVGID_37_" gradientUnits="userSpaceOnUse" x1="497.7956" y1="638.9935" x2="497.7956" y2="85.3203">
			<stop  offset="0.1006" style="stop-color:#F99810"/>
			<stop  offset="1" style="stop-color:#FFCB00"/>
		</linearGradient>
		<path class="st36" d="M417.7,308.4c4.33-22.08,14.72-24.68,40.26-24.68h21.21c22.95,0,30.96,4.11,30.96,16.23
			c0,2.6-0.43,5.63-1.08,8.88l-20.13,103.47h29.01l20.13-103.91c4.33-22.08,14.72-24.68,39.83-24.68h21.65
			c22.73,0,30.74,4.11,30.74,16.45c0,2.6-0.22,5.41-0.87,8.66l-51.09,262.79c-3.9,19.48-10.82,28.57-30.31,28.57h-44.59
			c-12.77,0-17.75-5.2-17.75-16.45c0-3.9,0.65-8.66,1.73-14.29l19.92-102.61h-29.01l-20.35,104.77
			c-3.9,19.48-10.82,28.57-29.87,28.57h-45.03c-12.77,0-17.75-5.2-17.75-16.45c0-3.9,0.65-8.66,1.73-14.29L417.7,308.4z"/>
		<linearGradient id="SVGID_38_" gradientUnits="userSpaceOnUse" x1="717.3865" y1="638.9935" x2="717.3865" y2="85.3203">
			<stop  offset="0.1006" style="stop-color:#F99810"/>
			<stop  offset="1" style="stop-color:#FFCB00"/>
		</linearGradient>
		<path class="st37" d="M696.28,604.1c-66.67,0-89.83-18.4-89.83-65.16c0-14.72,2.16-32.25,6.28-53.03
			c18.62-93.73,45.89-119.49,129.45-119.49c63.86,0,86.15,17.97,86.15,63.64c0,15.15-2.6,33.34-6.71,54.98
			C804.3,575.96,775.72,604.1,696.28,604.1z M738.93,422.7c0.22-1.3,0.43-2.6,0.43-3.9c0-3.9-1.95-6.49-7.58-6.49
			c-9.09,0-11.04,5.63-11.91,10.39l-24.46,125.99c-0.22,1.08-0.22,1.95-0.22,2.81c0,4.11,2.17,6.71,8.23,6.71
			c7.36,0,9.96-4.33,11.04-9.52L738.93,422.7z"/>
		<linearGradient id="SVGID_39_" gradientUnits="userSpaceOnUse" x1="951.164" y1="638.9935" x2="951.164" y2="85.3203">
			<stop  offset="0.1006" style="stop-color:#F99810"/>
			<stop  offset="1" style="stop-color:#FFCB00"/>
		</linearGradient>
		<path class="st38" d="M929.41,366.42c19.92,0,32.69,3.46,39.83,6.93l14.72-75.76c3.68-19.05,11.69-25.11,39.4-25.11h21.21
			c21.43,0,31.39,1.73,31.39,15.59c0,2.6-0.43,5.63-1.08,9.09l-56.07,288.34c-1.95,9.96-7.14,14.72-17.1,14.72h-11.69
			c-15.59,0-30.96-3.46-41.13-13.42c-9.31,11.04-23.38,17.75-54.98,17.75c-47.62,0-67.54-13.85-67.54-58.23
			c0-16.02,2.81-36.15,7.58-61.26C851.91,393.26,874.86,366.42,929.41,366.42z M959.71,419.02c0-4.33-1.73-6.71-7.14-6.71
			c-8.66,0-11.04,4.76-12.55,12.99l-24.03,122.95c-0.22,1.08-0.22,1.95-0.22,3.03c0,4.11,2.17,6.93,8.44,6.93
			c6.93,0,9.74-4.33,10.82-9.96l24.03-122.95C959.5,422.91,959.71,420.75,959.71,419.02z"/>
		<linearGradient id="SVGID_40_" gradientUnits="userSpaceOnUse" x1="1155.0623" y1="638.9935" x2="1155.0623" y2="85.3203">
			<stop  offset="0.1006" style="stop-color:#F99810"/>
			<stop  offset="1" style="stop-color:#FFCB00"/>
		</linearGradient>
		<path class="st39" d="M1148.03,455.17h23.38c8.01-41.13,8.01-40.91,8.01-41.78c0-4.11-1.95-7.14-7.58-7.14
			c-7.79,0-10.82,4.76-11.91,10.39l-2.16,10.39c-3.03,14.72-12.56,16.02-23.81,16.02h-42.86c-11.69,0-16.89-3.46-16.89-12.56
			c0-1.95,0.22-4.11,0.65-6.49c5.41-30.31,28.14-57.58,100.88-57.58c64.51,0,92.22,11.69,92.22,51.95c0,10.39-1.51,22.51-4.33,36.8
			l-26.19,134.64c-1.08,5.63-6.71,10.39-16.67,10.39h-11.25c-15.59,0-28.79-4.55-39.83-13.42l-1.08-0.87
			c-9.74,11.69-28.79,18.18-56.07,18.18c-45.03,0-70.35-14.72-70.35-52.82c0-6.71,0.87-14.07,2.38-22.08
			C1052.35,488.07,1076.59,455.17,1148.03,455.17z M1156.04,487.21c-8.66,0-11.04,5.63-12.77,14.29l-8.87,46.32
			c-0.22,1.3-0.43,2.6-0.43,3.68c0,3.9,1.73,6.71,7.79,6.71c7.36,0,10.39-4.33,11.69-10.39l11.69-60.61H1156.04z"/>
	</g>
	<g>
		<linearGradient id="SVGID_41_" gradientUnits="userSpaceOnUse" x1="431.274" y1="656.6467" x2="431.274" y2="849.3108">
			<stop  offset="0.1006" style="stop-color:#F99810"/>
			<stop  offset="1" style="stop-color:#FFCB00"/>
		</linearGradient>
		<path class="st40" d="M409.59,750.68l15.39-72.81h15.24l-12.75,60.06h25.5l-2.69,12.75H409.59z"/>
		<linearGradient id="SVGID_42_" gradientUnits="userSpaceOnUse" x1="489.1673" y1="656.6467" x2="489.1673" y2="849.3108">
			<stop  offset="0.1006" style="stop-color:#F99810"/>
			<stop  offset="1" style="stop-color:#FFCB00"/>
		</linearGradient>
		<path class="st41" d="M486.28,751.68c-6.97,0-12.38-1.88-16.24-5.63c-3.85-3.75-5.78-9.05-5.78-15.89c0-6.87,1.37-13.14,4.11-18.8
			c2.74-5.66,6.45-9.98,11.13-12.95c4.68-2.97,9.98-4.46,15.89-4.46c5.88,0,10.46,1.35,13.74,4.06c3.29,2.71,4.93,6.42,4.93,11.13
			c0,6.21-2.77,11-8.32,14.37c-5.54,3.37-13.46,5.05-23.75,5.05h-2.54l-0.1,1.05v1c0,3.02,0.85,5.4,2.56,7.15
			c1.71,1.74,4.16,2.61,7.35,2.61c2.89,0,5.51-0.32,7.87-0.95c2.36-0.63,5.21-1.74,8.57-3.34v11.3
			C499.99,750.25,493.52,751.68,486.28,751.68z M494.45,704.76c-2.92,0-5.68,1.33-8.27,3.98c-2.59,2.66-4.28,5.89-5.08,9.71h2.24
			c5.15,0,9.16-0.8,12.03-2.42c2.87-1.61,4.31-3.79,4.31-6.55C499.68,706.34,497.93,704.76,494.45,704.76z"/>
		<linearGradient id="SVGID_43_" gradientUnits="userSpaceOnUse" x1="543.2758" y1="656.6467" x2="543.2758" y2="849.3108">
			<stop  offset="0.1006" style="stop-color:#F99810"/>
			<stop  offset="1" style="stop-color:#FFCB00"/>
		</linearGradient>
		<path class="st42" d="M575.67,695.1l-1.74,8.27l-8.67,2.04c0.53,1.73,0.8,3.69,0.8,5.88c0,6.47-2.01,11.6-6.03,15.36
			c-4.02,3.77-9.48,5.65-16.38,5.65c-1.96,0-3.6-0.17-4.93-0.5c-2.79,0.9-4.18,2.19-4.18,3.88c0,1.13,0.5,1.94,1.49,2.44
			c1,0.5,2.47,0.88,4.43,1.15l6.82,0.9c5.41,0.7,9.35,2.1,11.83,4.21c2.47,2.11,3.71,5.15,3.71,9.14c0,7-2.59,12.37-7.77,16.09
			c-5.18,3.72-12.58,5.58-22.21,5.58c-6.91,0-12.29-1.25-16.16-3.76c-3.87-2.51-5.8-5.95-5.8-10.33c0-3.39,1.14-6.3,3.41-8.74
			s5.83-4.46,10.68-6.05c-2.46-1.56-3.69-3.77-3.69-6.62c0-2.36,0.74-4.39,2.22-6.1c1.48-1.71,3.91-3.34,7.3-4.91
			c-2.16-1.63-3.75-3.49-4.78-5.58s-1.54-4.63-1.54-7.62c0-6.61,2.08-11.84,6.25-15.71c4.17-3.87,9.84-5.8,17.01-5.8
			c2.76,0,5.51,0.38,8.27,1.15H575.67z M534.78,750.98c-3.52,0.46-6.18,1.41-7.99,2.84c-1.81,1.43-2.71,3.24-2.71,5.43
			c0,3.82,3.22,5.73,9.66,5.73c5.01,0,8.8-0.75,11.35-2.24s3.83-3.6,3.83-6.32c0-1.29-0.54-2.29-1.62-2.99
			c-1.08-0.7-3.36-1.28-6.85-1.74L534.78,750.98z M547.19,703.47c-2.56,0-4.62,1.27-6.2,3.81s-2.37,5.72-2.37,9.54
			c0,3.95,1.71,5.93,5.13,5.93c2.49,0,4.51-1.27,6.05-3.81c1.54-2.54,2.32-5.75,2.32-9.64S550.47,703.47,547.19,703.47z"/>
		<linearGradient id="SVGID_44_" gradientUnits="userSpaceOnUse" x1="604.4808" y1="656.6467" x2="604.4808" y2="849.3108">
			<stop  offset="0.1006" style="stop-color:#F99810"/>
			<stop  offset="1" style="stop-color:#FFCB00"/>
		</linearGradient>
		<path class="st43" d="M584.83,695h14.99L593,727.52c-0.53,2.26-0.8,4.23-0.8,5.93c0,4.08,1.79,6.13,5.38,6.13
			c3.05,0,5.83-1.89,8.32-5.68s4.45-9.06,5.88-15.84l4.88-23.06h14.99l-11.8,55.68h-11.45l1.05-10.31h-0.3
			c-4.81,7.54-10.71,11.3-17.68,11.3c-4.58,0-8.08-1.37-10.51-4.11s-3.64-6.7-3.64-11.88c0-3.09,0.4-6.62,1.2-10.61L584.83,695z"/>
		<linearGradient id="SVGID_45_" gradientUnits="userSpaceOnUse" x1="677.8621" y1="656.6467" x2="677.8621" y2="849.3108">
			<stop  offset="0.1006" style="stop-color:#F99810"/>
			<stop  offset="1" style="stop-color:#FFCB00"/>
		</linearGradient>
		<path class="st44" d="M675.42,693.96c7.27,0,11.62,3.78,13.05,11.35h0.3c2.26-3.65,4.92-6.46,7.99-8.42
			c3.07-1.96,6.35-2.94,9.84-2.94c4.52,0,7.96,1.41,10.33,4.23c2.37,2.82,3.56,6.76,3.56,11.8c0,2.52-0.38,5.51-1.15,8.96
			l-6.62,31.72h-14.99l6.87-32.52c0.53-2.26,0.8-4.23,0.8-5.93c0-4.08-1.63-6.13-4.88-6.13c-3.05,0-5.82,1.86-8.29,5.58
			c-2.47,3.72-4.44,9-5.9,15.84l-4.78,23.16h-14.99l6.82-32.52c0.53-2.26,0.8-4.23,0.8-5.93c0-4.08-1.63-6.13-4.88-6.13
			c-3.05,0-5.83,1.89-8.32,5.68c-2.49,3.78-4.45,9.06-5.88,15.84l-4.88,23.06h-14.99l11.8-55.68h11.45l-1.05,10.31h0.3
			C662.59,697.74,668.48,693.96,675.42,693.96z"/>
		<linearGradient id="SVGID_46_" gradientUnits="userSpaceOnUse" x1="755.0532" y1="656.6467" x2="755.0532" y2="849.3108">
			<stop  offset="0.1006" style="stop-color:#F99810"/>
			<stop  offset="1" style="stop-color:#FFCB00"/>
		</linearGradient>
		<path class="st45" d="M752.16,751.68c-6.97,0-12.38-1.88-16.24-5.63c-3.85-3.75-5.78-9.05-5.78-15.89c0-6.87,1.37-13.14,4.11-18.8
			c2.74-5.66,6.45-9.98,11.13-12.95c4.68-2.97,9.98-4.46,15.89-4.46c5.88,0,10.46,1.35,13.74,4.06c3.29,2.71,4.93,6.42,4.93,11.13
			c0,6.21-2.77,11-8.32,14.37c-5.54,3.37-13.46,5.05-23.75,5.05h-2.54l-0.1,1.05v1c0,3.02,0.85,5.4,2.56,7.15
			c1.71,1.74,4.16,2.61,7.35,2.61c2.89,0,5.51-0.32,7.87-0.95c2.36-0.63,5.21-1.74,8.57-3.34v11.3
			C765.88,750.25,759.4,751.68,752.16,751.68z M760.33,704.76c-2.92,0-5.68,1.33-8.27,3.98c-2.59,2.66-4.28,5.89-5.08,9.71h2.24
			c5.15,0,9.15-0.8,12.03-2.42c2.87-1.61,4.31-3.79,4.31-6.55C765.56,706.34,763.82,704.76,760.33,704.76z"/>
		<linearGradient id="SVGID_47_" gradientUnits="userSpaceOnUse" x1="806.1736" y1="656.6467" x2="806.1736" y2="849.3108">
			<stop  offset="0.1006" style="stop-color:#F99810"/>
			<stop  offset="1" style="stop-color:#FFCB00"/>
		</linearGradient>
		<path class="st46" d="M823.78,732.3c0,6.24-2.07,11.03-6.2,14.37c-4.13,3.34-9.89,5.01-17.26,5.01c-3.55,0-6.65-0.25-9.29-0.75
			c-2.64-0.5-5.1-1.33-7.4-2.49v-12.35c5.21,2.99,10.51,4.48,15.89,4.48c2.66,0,4.83-0.54,6.52-1.62c1.69-1.08,2.54-2.55,2.54-4.41
			c0-1.43-0.61-2.71-1.84-3.83c-1.23-1.13-3.4-2.56-6.52-4.28c-4.02-2.26-6.82-4.51-8.42-6.75c-1.59-2.24-2.39-4.89-2.39-7.94
			c0-5.64,1.83-10.02,5.5-13.12c3.67-3.1,8.91-4.66,15.71-4.66c6.67,0,12.7,1.58,18.08,4.73l-4.93,10.71
			c-4.65-2.79-8.93-4.18-12.85-4.18c-1.89,0-3.42,0.42-4.58,1.27c-1.16,0.85-1.74,1.98-1.74,3.41c0,1.29,0.53,2.43,1.59,3.41
			c1.06,0.98,3.05,2.22,5.98,3.71c4.08,2.09,7.04,4.37,8.86,6.82C822.87,726.29,823.78,729.12,823.78,732.3z"/>
		<linearGradient id="SVGID_48_" gradientUnits="userSpaceOnUse" x1="894.5449" y1="656.6467" x2="894.5449" y2="849.3108">
			<stop  offset="0.1006" style="stop-color:#F99810"/>
			<stop  offset="1" style="stop-color:#FFCB00"/>
		</linearGradient>
		<path class="st47" d="M923.23,750.68H905.8l-3.59-4.88c-5.81,3.92-12.5,5.88-20.07,5.88c-6.94,0-12.26-1.62-15.96-4.86
			s-5.55-7.89-5.55-13.97c0-4.81,1.3-8.94,3.91-12.38c2.61-3.44,7.15-6.76,13.62-9.99c-2.52-4.32-3.78-8.6-3.78-12.85
			c0-6.47,1.95-11.58,5.85-15.31s9.16-5.6,15.76-5.6c5.61,0,10.03,1.37,13.25,4.11c3.22,2.74,4.83,6.47,4.83,11.18
			c0,9.3-6.06,16.37-18.18,21.22l9.71,13.1c1.46-1.89,2.8-3.91,4.01-6.05c1.21-2.14,2.51-5.02,3.91-8.64h14.94
			c-4.42,10.39-9.56,18.64-15.44,24.75L923.23,750.68z M884.19,719.65c-2.92,1.69-4.96,3.43-6.13,5.2
			c-1.16,1.78-1.74,3.96-1.74,6.55c0,2.16,0.76,3.95,2.27,5.38c1.51,1.43,3.44,2.14,5.8,2.14c3.82,0,7.49-0.98,11.01-2.94
			L884.19,719.65z M890.21,704.86c3.75-1.96,6.33-3.8,7.74-5.53c1.41-1.73,2.12-3.59,2.12-5.58c0-1.89-0.5-3.26-1.49-4.11
			s-2.16-1.27-3.49-1.27c-2.19,0-3.89,0.77-5.1,2.32c-1.21,1.54-1.82,3.53-1.82,5.95c0,1.53,0.2,3.05,0.6,4.58
			C889.17,702.75,889.65,703.97,890.21,704.86z"/>
		<linearGradient id="SVGID_49_" gradientUnits="userSpaceOnUse" x1="993.5985" y1="656.6467" x2="993.5985" y2="849.3108">
			<stop  offset="0.1006" style="stop-color:#F99810"/>
			<stop  offset="1" style="stop-color:#FFCB00"/>
		</linearGradient>
		<path class="st48" d="M993.5,709.79h28.04l-8.07,37.95c-4.45,1.53-8.57,2.56-12.38,3.11c-3.8,0.55-7.83,0.82-12.08,0.82
			c-8.6,0-15.24-2.44-19.92-7.32c-4.68-4.88-7.02-11.89-7.02-21.02c0-8.9,1.78-16.94,5.33-24.13c3.55-7.19,8.55-12.73,14.99-16.63
			c6.44-3.9,13.88-5.85,22.31-5.85c7.24,0,14.04,1.64,20.42,4.93l-5.73,12.5c-2.46-1.33-4.91-2.39-7.37-3.19
			c-2.46-0.8-5.13-1.2-8.02-1.2c-5.08,0-9.62,1.38-13.62,4.13c-4,2.76-7.14,6.68-9.41,11.78c-2.27,5.1-3.41,10.58-3.41,16.46
			c0,5.71,1.2,9.9,3.61,12.57c2.41,2.67,6.1,4.01,11.08,4.01c2.52,0,5.35-0.4,8.47-1.2l3.29-14.89h-13.3L993.5,709.79z"/>
		<linearGradient id="SVGID_50_" gradientUnits="userSpaceOnUse" x1="1050.5955" y1="656.6467" x2="1050.5955" y2="849.3108">
			<stop  offset="0.1006" style="stop-color:#F99810"/>
			<stop  offset="1" style="stop-color:#FFCB00"/>
		</linearGradient>
		<path class="st49" d="M1068.25,693.96c1.96,0,3.55,0.18,4.78,0.55l-3.29,14.44c-1.49-0.53-3.15-0.8-4.98-0.8
			c-3.85,0-7.23,1.52-10.13,4.56s-4.97,7.4-6.2,13.07l-5.28,24.9h-14.99l11.8-55.68h11.45l-1.05,10.31h0.3
			C1055.55,697.74,1061.41,693.96,1068.25,693.96z"/>
		<linearGradient id="SVGID_51_" gradientUnits="userSpaceOnUse" x1="1100.9189" y1="656.6467" x2="1100.9189" y2="849.3108">
			<stop  offset="0.1006" style="stop-color:#F99810"/>
			<stop  offset="1" style="stop-color:#FFCB00"/>
		</linearGradient>
		<path class="st50" d="M1089.46,751.68c-4.88,0-8.72-1.77-11.53-5.3c-2.81-3.54-4.21-8.49-4.21-14.87c0-6.57,1.2-12.84,3.59-18.8
			c2.39-5.96,5.53-10.57,9.41-13.84c3.88-3.27,8.15-4.91,12.8-4.91c3.22,0,6,0.7,8.34,2.09c2.34,1.39,4.16,3.42,5.45,6.08h0.4
			l2.84-7.12h11.55l-11.85,55.68h-11.4l0.7-7.22h-0.2C1100.9,748.94,1095.61,751.68,1089.46,751.68z M1095.34,739.57
			c2.29,0,4.5-1.11,6.62-3.34c2.12-2.22,3.83-5.24,5.13-9.04c1.29-3.8,1.94-8.11,1.94-12.92c0-2.36-0.64-4.31-1.92-5.85
			c-1.28-1.54-2.96-2.32-5.05-2.32c-2.26,0-4.41,1.2-6.45,3.59s-3.67,5.54-4.88,9.46c-1.21,3.92-1.82,7.8-1.82,11.65
			c0,2.92,0.56,5.11,1.67,6.57C1091.7,738.84,1093.28,739.57,1095.34,739.57z"/>
		<linearGradient id="SVGID_52_" gradientUnits="userSpaceOnUse" x1="1147.0344" y1="656.6467" x2="1147.0344" y2="849.3108">
			<stop  offset="0.1006" style="stop-color:#F99810"/>
			<stop  offset="1" style="stop-color:#FFCB00"/>
		</linearGradient>
		<path class="st51" d="M1146.69,750.68h-14.99l11.8-55.68h14.99L1146.69,750.68z M1145.89,681.95c0-2.89,0.79-5.07,2.37-6.55
			c1.58-1.48,3.81-2.22,6.7-2.22c2.42,0,4.27,0.52,5.53,1.54c1.26,1.03,1.89,2.51,1.89,4.43c0,2.66-0.73,4.81-2.19,6.45
			c-1.46,1.64-3.72,2.47-6.77,2.47C1148.4,688.08,1145.89,686.04,1145.89,681.95z"/>
		<linearGradient id="SVGID_53_" gradientUnits="userSpaceOnUse" x1="1189.2654" y1="656.6467" x2="1189.2654" y2="849.3108">
			<stop  offset="0.1006" style="stop-color:#F99810"/>
			<stop  offset="1" style="stop-color:#FFCB00"/>
		</linearGradient>
		<path class="st52" d="M1208.79,750.68h-14.99l6.82-32.52c0.53-2.26,0.8-4.23,0.8-5.93c0-4.08-1.79-6.13-5.38-6.13
			c-3.05,0-5.83,1.89-8.32,5.68c-2.49,3.78-4.45,9.06-5.88,15.84l-4.88,23.06h-14.99l11.8-55.68h11.45l-1.05,10.31h0.3
			c4.85-7.57,10.74-11.35,17.68-11.35c4.58,0,8.13,1.39,10.63,4.16c2.51,2.77,3.76,6.73,3.76,11.88c0,2.42-0.38,5.41-1.15,8.96
			L1208.79,750.68z"/>
		<linearGradient id="SVGID_54_" gradientUnits="userSpaceOnUse" x1="1245.4156" y1="656.6467" x2="1245.4156" y2="849.3108">
			<stop  offset="0.1006" style="stop-color:#F99810"/>
			<stop  offset="1" style="stop-color:#FFCB00"/>
		</linearGradient>
		<path class="st53" d="M1263.02,732.3c0,6.24-2.07,11.03-6.2,14.37c-4.13,3.34-9.89,5.01-17.26,5.01c-3.55,0-6.65-0.25-9.29-0.75
			c-2.64-0.5-5.1-1.33-7.4-2.49v-12.35c5.21,2.99,10.51,4.48,15.89,4.48c2.66,0,4.83-0.54,6.52-1.62c1.69-1.08,2.54-2.55,2.54-4.41
			c0-1.43-0.61-2.71-1.84-3.83c-1.23-1.13-3.4-2.56-6.52-4.28c-4.02-2.26-6.82-4.51-8.42-6.75s-2.39-4.89-2.39-7.94
			c0-5.64,1.83-10.02,5.5-13.12c3.67-3.1,8.91-4.66,15.71-4.66c6.67,0,12.7,1.58,18.08,4.73l-4.93,10.71
			c-4.65-2.79-8.93-4.18-12.85-4.18c-1.89,0-3.42,0.42-4.58,1.27c-1.16,0.85-1.74,1.98-1.74,3.41c0,1.29,0.53,2.43,1.59,3.41
			c1.06,0.98,3.05,2.22,5.98,3.71c4.08,2.09,7.04,4.37,8.86,6.82C1262.11,726.29,1263.02,729.12,1263.02,732.3z"/>
	</g>
</g>
</svg>
